# xmcd
#
# Track frame offsets:
#	150
#	19451
#	45282
#	70716
#	89852
#	120088
#	136395
#	149787
#	173667
#	207101
#	225918
#	242166
#	258847
#	279921
#
# Disc length: 4021 seconds
#
# Revision: 1
# Processed by: cddbd v1.5.1PL2 Copyright (c) Steve Scherf et al.
# Submitted via: audiograbber 1.83.01
#
DISCID=bd0fb30e
DTITLE=The Nobby Reed Project - It's All About The Blues
DYEAR=1998
DGENRE=Blues
TTITLE0=Sad Times
TTITLE1=Git On Up
TTITLE2=Cryin' In My Dreams
TTITLE3=Axe To Grind
TTITLE4=It's All About The Blues
TTITLE5=Make It Right
TTITLE6=Thick And Thin
TTITLE7=Blues Bug
TTITLE8=No More
TTITLE9=The Train Song
TTITLE10=T-Bone's
TTITLE11=Baby's Back In Town
TTITLE12=Fly On
TTITLE13=Blueday
EXTD=
EXTT0=
EXTT1=
EXTT2=
EXTT3=
EXTT4=
EXTT5=
EXTT6=
EXTT7=
EXTT8=
EXTT9=
EXTT10=
EXTT11=
EXTT12=
EXTT13=
PLAYORDER=
